#!OML:ASF F:\VICON\USERDATA\INSTALL\Justin_Nancy\Justin_Nancy.ASF
:FULLY-SPECIFIED
:DEGREES
365
root -8.4149 17.3835 13.1621 8.99906 -48.7996 -8.06798
lowerback 5.05159 1.49348 4.64061
upperback -0.0433702 2.33303 3.84333
thorax -2.85547 1.10265 1.19369
lowerneck -14.7686 -3.09458 -9.89765
upperneck 23.6565 -3.03835 4.21421
head 10.2179 -1.86035 2.74702
rclavicle 3.05631e-014 -2.78299e-014
rhumerus -27.4919 -4.98858 -80.7179
rradius 35.2099
rwrist 2.18775
rhand -13.5298 13.7427
rfingers 7.12502
rthumb 12.5825 -15.8584
lclavicle 3.05631e-014 -2.78299e-014
lhumerus -32.4821 14.0569 83.616
lradius 25.3721
lwrist -8.97962
lhand -15.6257 25.3759
lfingers 7.12502
lthumb 10.5612 55.0905
rfemur 4.91577 4.61856 31.4925
rtibia 12.2335
rfoot -12.9785 -5.93738
rtoes 2.92353
lfemur -32.8234 -1.33825 -14.6425
ltibia 26.5292
lfoot -8.48268 5.63176
ltoes -19.9486
366
root -8.50909 17.3763 13.2757 8.99253 -48.8403 -7.96878
lowerback 4.92554 1.48893 4.57264
upperback -0.0515889 2.31418 3.82377
thorax -2.79513 1.09536 1.21589
lowerneck -14.7309 -3.06458 -9.74497
upperneck 23.4993 -2.99383 4.0569
head 10.1453 -1.8407 2.66947
rclavicle 5.44173e-014 4.21423e-014
rhumerus -27.2742 -4.86036 -80.7374
rradius 35.1452
rwrist 2.33054
rhand -13.746 13.0887
rfingers 7.12502
rthumb 12.374 -16.5251
lclavicle 5.44173e-014 4.21423e-014
lhumerus -32.6062 14.809 83.3474
lradius 25.2087
lwrist -9.60734
lhand -15.4799 25.2123
lfingers 7.12502
lthumb 10.7019 54.9197
rfemur 5.68332 4.57348 31.3074
rtibia 11.8031
rfoot -13.3062 -5.6533
rtoes 4.90957
lfemur -32.523 -2.31812 -14.2601
ltibia 24.7459
lfoot -8.76245 6.13225
ltoes -19.9909
367
root -8.59622 17.3634 13.3776 9.25619 -48.8103 -8.35737
lowerback 5.03407 1.53519 4.81468
upperback -0.0659541 2.39837 3.85995
thorax -2.862 1.13201 1.10971
lowerneck -14.6408 -3.0354 -9.81509
upperneck 23.3712 -3.01727 4.35827
head 10.0878 -1.82101 2.78512
rclavicle 3.34455e-014 -2.38542e-015
rhumerus -26.939 -5.35276 -80.7284
rradius 34.8729
rwrist 2.62905
rhand -13.7471 12.6068
rfingers 7.12502
rthumb 12.373 -17.0071
lclavicle 3.34455e-014 -2.38542e-015
lhumerus -32.6826 15.1003 83.2099
lradius 25.1022
lwrist -9.86642
lhand -14.9933 25.2761
lfingers 7.12502
lthumb 11.1712 54.9587
rfemur 6.45081 4.78387 31.6116
rtibia 11.4237
rfoot -13.3873 -5.85354
rtoes 5.46308
lfemur -32.2089 -3.2376 -13.5127
ltibia 23.1198
lfoot -8.96165 6.42886
ltoes -19.9099
368
root -8.68745 17.3556 13.4745 9.2587 -48.8438 -8.231
lowerback 5.06148 1.63578 4.54765
upperback -0.144113 2.52536 3.86778
thorax -2.96825 1.1976 1.25521
lowerneck -14.5576 -3.08642 -9.99006
upperneck 23.3031 -3.11519 4.60907
head 10.0619 -1.85235 2.89078
rclavicle -2.23633e-014 -2.78299e-014
rhumerus -26.8739 -5.50279 -80.6504
rradius 34.8797
rwrist 2.75175
rhand -13.1434 13.6158
rfingers 7.12502
rthumb 12.9549 -15.962
lclavicle -2.23633e-014 -2.78299e-014
lhumerus -32.6606 14.9049 83.3156
lradius 24.8272
lwrist -9.5409
lhand -14.8783 25.3259
lfingers 7.12502
lthumb 11.2821 55.0025
rfemur 6.85258 4.63841 31.5804
rtibia 11.2433
rfoot -13.1476 -6.27802
rtoes 1.48952
lfemur -31.9532 -3.76425 -13.3479
ltibia 21.5714
lfoot -8.90937 6.62365
ltoes -20.2617
369
root -8.78109 17.3511 13.5807 9.03855 -49.0702 -7.87481
lowerback 5.03452 1.67888 4.14746
upperback -0.180003 2.56167 3.89642
thorax -3.00846 1.22203 1.50508
lowerneck -14.5771 -3.04805 -10.0949
upperneck 23.2926 -2.99467 4.46471
head 10.0531 -1.82196 2.87236
rclavicle 1.08735e-013 2.78299e-014
rhumerus -26.8398 -5.19722 -80.5577
rradius 34.9163
rwrist 2.87548
rhand -14.3965 12.6316
rfingers 7.12502
rthumb 11.7468 -17.019
lclavicle 1.08735e-013 2.78299e-014
lhumerus -32.8439 15.4521 83.2721
lradius 24.5894
lwrist -9.72771
lhand -15.1025 25.0954
lfingers 7.12502
lthumb 11.0659 54.7836
rfemur 7.37259 4.57169 31.2374
rtibia 11.1509
rfoot -13.205 -6.18871
rtoes 0.845524
lfemur -31.739 -4.63139 -13.149
ltibia 20.4302
lfoot -9.02112 7.22448
ltoes -18.9342
370
root -8.87251 17.3445 13.692 8.88473 -49.2918 -7.6171
lowerback 4.84415 1.67227 4.08285
upperback -0.112523 2.52973 3.75014
thorax -2.82746 1.20991 1.39859
lowerneck -14.5245 -2.91092 -10.0323
upperneck 23.1784 -2.84371 4.55974
head 9.98846 -1.73396 2.91472
rclavicle -1.73688e-013 -4.6118e-014
rhumerus -26.5066 -5.19998 -80.8397
rradius 34.7811
rwrist 3.12292
rhand -14.6993 12.913
rfingers 7.12502
rthumb 11.4547 -16.754
lclavicle -1.73688e-013 -4.6118e-014
lhumerus -32.9186 15.813 83.018
lradius 24.5043
lwrist -9.85096
lhand -15.112 25.1337
lfingers 7.12502
lthumb 11.0567 54.8225
rfemur 7.97753 4.931 30.893
rtibia 11.19
rfoot -13.7464 -5.65543
rtoes 5.95741
lfemur -31.7325 -6.91617 -12.1191
ltibia 19.5424
lfoot -9.4263 8.86194
ltoes -12.4547
371
root -8.96685 17.3342 13.808 8.75872 -49.3895 -7.24269
lowerback 4.48625 1.61387 3.97727
upperback -0.106365 2.41992 3.58368
thorax -2.61718 1.15987 1.30345
lowerneck -14.4005 -2.80478 -9.92797
upperneck 23.0528 -2.72441 4.53194
head 9.90725 -1.6717 2.90185
rclavicle -5.56597e-015 8.74653e-015
rhumerus -26.2783 -5.24653 -81.0549
rradius 34.626
rwrist 3.35504
rhand -14.2766 13.5888
rfingers 7.12502
rthumb 11.8624 -16.0552
lclavicle -5.56597e-015 8.74653e-015
lhumerus -33.014 16.3856 82.6448
lradius 24.2723
lwrist -10.2019
lhand -14.9605 25.1664
lfingers 7.12502
lthumb 11.2028 54.8473
rfemur 8.18453 4.57493 30.5424
rtibia 11.324
rfoot -13.53 -5.81096
rtoes 1.75477
lfemur -31.2472 -4.82475 -13.5573
ltibia 18.9091
lfoot -9.61735 7.59369
ltoes -18.0655
372
root -9.06273 17.3187 13.9278 8.95472 -49.3688 -7.35874
lowerback 4.33632 1.62057 4.03204
upperback -0.195242 2.42692 3.59752
thorax -2.62314 1.16211 1.29
lowerneck -14.6108 -2.89389 -9.71255
upperneck 23.2551 -2.81465 4.24426
head 10.0206 -1.72936 2.75288
rclavicle -1.36217e-013 -6.36111e-015
rhumerus -26.4915 -5.22247 -80.9655
rradius 34.7287
rwrist 3.24438
rhand -13.4523 14.2522
rfingers 7.12502
rthumb 12.6572 -15.3442
lclavicle -1.36217e-013 -6.36111e-015
lhumerus -33.1779 16.905 82.4067
lradius 23.9864
lwrist -10.6942
lhand -14.8134 25.5267
lfingers 7.12502
lthumb 11.3447 55.1999
rfemur 8.61394 4.77515 30.6193
rtibia 11.3918
rfoot -13.5911 -6.108
rtoes 0.925356
lfemur -31.0299 -4.27952 -13.804
ltibia 18.6661
lfoot -9.93718 7.24162
ltoes -18.1664
373
root -9.15729 17.3044 14.0412 8.93955 -49.4165 -7.24355
lowerback 4.20111 1.72143 3.95102
upperback -0.173564 2.54577 3.45495
thorax -2.52085 1.22408 1.18502
lowerneck -14.9088 -3.01861 -9.40767
upperneck 23.3926 -3.0369 4.23599
head 10.1376 -1.80457 2.66933
rclavicle -1.43224e-013 5.56597e-015
rhumerus -26.6128 -5.24755 -81.0498
rradius 34.9949
rwrist 2.86364
rhand -12.5043 14.7044
rfingers 7.12502
rthumb 13.571 -14.8333
lclavicle -1.43224e-013 5.56597e-015
lhumerus -32.9753 16.8014 82.2978
lradius 23.6308
lwrist -10.7483
lhand -14.7531 25.7162
lfingers 7.12502
lthumb 11.4029 55.3861
rfemur 9.07584 4.94767 30.4996
rtibia 11.3811
rfoot -13.5128 -6.17194
rtoes 0.122475
lfemur -30.9768 -4.14052 -13.9817
ltibia 18.8921
lfoot -9.99334 7.10084
ltoes -18.6167
